<svg width="142" height="20" viewBox="0 0 142 20" fill="none" xmlns="http://www.w3.org/2000/svg">
<path d="M12.52 18.74C9.27867 19.0867 6.41867 19.26 3.94 19.26C2.76133 19.26 1.81667 18.9047 1.106 18.194C0.395333 17.4833 0.0400001 16.5387 0.0400001 15.36V9.38C0.0400001 8.08 0.404 7.066 1.132 6.338C1.87733 5.59267 2.9 5.22 4.2 5.22H12.52V8.73H5.63C4.93667 8.73 4.59 9.07667 4.59 9.77V14.84C4.59 15.1 4.67667 15.3167 4.85 15.49C5.02333 15.6633 5.24 15.75 5.5 15.75C7.06 15.75 9.4 15.62 12.52 15.36V18.74ZM20.9649 15.49C21.8836 15.49 22.9236 15.3167 24.0849 14.97V5.22H28.6349V19H24.6049L24.3449 17.7C23.5303 18.2373 22.6896 18.636 21.8229 18.896C20.9736 19.1387 20.2543 19.26 19.6649 19.26H18.4949C17.3163 19.26 16.3716 18.9047 15.6609 18.194C14.9503 17.4833 14.5949 16.5387 14.5949 15.36V5.22H19.1449V14.58C19.1449 14.84 19.2316 15.0567 19.4049 15.23C19.5783 15.4033 19.7949 15.49 20.0549 15.49H20.9649ZM39.1558 8.99C38.0638 8.99 36.9371 9.25 35.7758 9.77V19H31.2258V5.22H35.2558L35.5158 6.91C37.0064 5.61 38.5664 4.96 40.1958 4.96H41.3658V8.99H39.1558ZM51.1148 8.99C50.0228 8.99 48.8961 9.25 47.7348 9.77V19H43.1848V5.22H47.2148L47.4748 6.91C48.9654 5.61 50.5254 4.96 52.1548 4.96H53.3248V8.99H51.1148ZM60.8638 5.74V19H56.3138V9.25H54.3638V5.74H60.8638ZM56.3138 0.539999H60.8638V4.18H56.3138V0.539999ZM75.6919 18.74C72.4505 19.0867 69.5905 19.26 67.1119 19.26C65.9332 19.26 64.9885 18.9047 64.2779 18.194C63.5672 17.4833 63.2119 16.5387 63.2119 15.36V9.38C63.2119 8.08 63.5759 7.066 64.3039 6.338C65.0492 5.59267 66.0719 5.22 67.3719 5.22H75.6919V8.73H68.8019C68.1085 8.73 67.7619 9.07667 67.7619 9.77V14.84C67.7619 15.1 67.8485 15.3167 68.0219 15.49C68.1952 15.6633 68.4119 15.75 68.6719 15.75C70.2319 15.75 72.5719 15.62 75.6919 15.36V18.74ZM84.1368 15.49C85.0555 15.49 86.0955 15.3167 87.2568 14.97V5.22H91.8068V19H87.7768L87.5168 17.7C86.7021 18.2373 85.8615 18.636 84.9948 18.896C84.1455 19.1387 83.4261 19.26 82.8368 19.26H81.6668C80.4881 19.26 79.5435 18.9047 78.8328 18.194C78.1221 17.4833 77.7668 16.5387 77.7668 15.36V5.22H82.3168V14.58C82.3168 14.84 82.4035 15.0567 82.5768 15.23C82.7501 15.4033 82.9668 15.49 83.2268 15.49H84.1368ZM101.418 19C100.256 19.1733 99.147 19.26 98.0897 19.26C97.0497 19.26 96.1743 18.9047 95.4637 18.194C94.753 17.4833 94.3977 16.5387 94.3977 15.36V0.799999H98.9477V14.71C98.9477 14.97 99.0343 15.1867 99.2077 15.36C99.381 15.5333 99.5977 15.62 99.8577 15.62H101.418V19ZM109.604 15.49C110.522 15.49 111.562 15.3167 112.724 14.97V5.22H117.274V19H113.244L112.984 17.7C112.169 18.2373 111.328 18.636 110.462 18.896C109.612 19.1387 108.893 19.26 108.304 19.26H107.134C105.955 19.26 105.01 18.9047 104.3 18.194C103.589 17.4833 103.234 16.5387 103.234 15.36V5.22H107.784V14.58C107.784 14.84 107.87 15.0567 108.044 15.23C108.217 15.4033 108.434 15.49 108.694 15.49H109.604ZM129.094 4.96C130.498 4.96 131.582 5.48 132.344 6.52C133.142 5.98267 134 5.59267 134.918 5.35C135.854 5.09 136.686 4.96 137.414 4.96H137.674C138.853 4.96 139.798 5.31533 140.508 6.026C141.219 6.73667 141.574 7.68133 141.574 8.86V19H137.024V9.64C137.024 9.38 136.938 9.16333 136.764 8.99C136.591 8.81667 136.374 8.73 136.114 8.73H135.984C135.204 8.73 134.208 8.90333 132.994 9.25V19H128.444V9.64C128.444 9.38 128.358 9.16333 128.184 8.99C128.011 8.81667 127.794 8.73 127.534 8.73H127.404C126.624 8.73 125.628 8.90333 124.414 9.25V19H119.864V5.22H123.894L124.154 6.52C124.969 5.98267 125.801 5.59267 126.65 5.35C127.517 5.09 128.245 4.96 128.834 4.96H129.094Z" fill="white"/>
</svg>
